<?xml version="1.0" standalone="no"?>
<!DOCTYPE svg PUBLIC "-//W3C//DTD SVG 20010904//EN"
 "http://www.w3.org/TR/2001/REC-SVG-20010904/DTD/svg10.dtd">
<svg version="1.0" xmlns="http://www.w3.org/2000/svg"
 width="700.000000pt" height="700.000000pt" viewBox="0 0 700.000000 700.000000"
 preserveAspectRatio="xMidYMid meet">

<g transform="translate(0.000000,700.000000) scale(0.100000,-0.100000)"
fill="#000000" stroke="none">
<path d="M2470 6060 l0 -481 -31 -17 c-84 -46 -208 -123 -291 -182 -108 -76
-323 -281 -415 -395 -224 -278 -390 -627 -457 -965 -37 -185 -48 -314 -45
-517 3 -166 2 -183 -15 -202 -13 -15 -31 -21 -59 -21 -82 0 -163 -64 -183
-143 -11 -48 5 -115 38 -153 49 -56 81 -67 202 -73 l108 -6 39 -110 c177 -505
550 -946 1026 -1214 516 -290 1154 -365 1723 -202 813 234 1429 896 1599 1721
34 160 45 277 44 465 0 247 -40 502 -112 707 l-19 56 25 24 c14 12 32 37 39
54 9 21 32 42 70 64 111 63 185 169 207 297 44 268 -206 513 -472 464 -107
-20 -205 -78 -257 -153 l-26 -38 -102 103 c-155 158 -363 315 -533 404 l-53
28 0 483 0 482 -1025 0 -1025 0 0 -480z m168 400 c9 -99 77 -585 113 -800 224
-1356 509 -2027 813 -1910 244 93 484 775 670 1901 41 247 94 620 112 787 l7
63 61 -3 61 -3 0 -2465 0 -2465 -50 -24 c-54 -25 -176 -75 -212 -86 -19 -5
-23 -2 -23 14 0 19 -6 21 -65 21 -58 0 -65 -2 -65 -20 0 -18 7 -20 63 -21 l62
-1 -75 -24 c-179 -57 -388 -86 -620 -85 -232 0 -460 33 -650 95 l-45 15 68 0
c60 1 67 3 67 21 0 18 -7 20 -70 20 -63 0 -70 -2 -70 -19 0 -20 -1 -20 -52 -2
-29 10 -92 35 -140 56 l-88 38 0 2469 0 2469 63 -3 62 -3 3 -35z m1672 30 c0
-27 -75 -561 -105 -750 -138 -866 -312 -1511 -481 -1778 -138 -219 -286 -240
-421 -59 -223 300 -440 1160 -598 2371 -14 104 -25 198 -25 208 0 17 33 18
815 18 530 0 815 -3 815 -10z m-1844 -4898 c-3 -2 -51 23 -108 57 -439 262
-772 663 -952 1143 -20 53 -36 102 -36 108 0 6 56 10 163 10 210 1 252 17 292
114 42 100 -40 216 -152 216 -32 0 -42 5 -50 23 -19 40 -64 87 -107 109 -52
28 -156 31 -203 7 l-32 -17 -7 56 c-11 88 3 365 25 497 39 229 91 393 192 603
190 397 488 723 866 948 l108 64 3 -1967 c1 -1081 0 -1968 -2 -1971z m2175
3866 c175 -106 366 -261 481 -391 l57 -65 -17 -71 c-12 -48 -22 -71 -32 -71
-31 0 -118 -49 -153 -84 -19 -21 -43 -53 -52 -72 -15 -32 -19 -34 -68 -34 -96
0 -180 -75 -193 -171 -9 -67 29 -147 87 -186 l43 -28 370 0 c204 0 383 3 398
8 27 7 28 6 53 -76 65 -215 95 -416 95 -654 0 -506 -151 -954 -463 -1368 -78
-103 -289 -314 -392 -392 -95 -71 -232 -161 -292 -192 l-43 -21 0 1965 c0
1086 4 1965 9 1965 4 0 55 -28 112 -62z m1033 -285 c210 -64 312 -313 211
-514 -26 -51 -95 -124 -144 -152 -30 -17 -31 -17 -31 0 0 113 -127 225 -239
211 -33 -4 -39 -1 -66 36 -35 46 -139 106 -186 106 -34 0 -35 0 -9 81 41 131
158 230 294 249 61 8 104 4 170 -17z m-385 -379 c47 -24 76 -53 116 -118 8
-14 16 -14 47 -6 54 15 113 -3 159 -49 69 -69 72 -163 8 -235 -57 -65 -74 -67
-459 -64 -304 3 -349 5 -377 20 -101 56 -97 217 7 271 34 18 96 19 131 3 12
-5 18 2 27 31 43 144 206 214 341 147z m-3834 -1445 c22 -6 55 -22 73 -36 32
-24 72 -89 72 -117 0 -12 5 -14 26 -6 87 33 164 -24 164 -121 0 -33 -6 -47
-34 -75 l-34 -34 -312 0 -312 0 -38 38 c-50 50 -59 94 -31 156 17 39 29 50 68
68 40 17 54 19 86 11 35 -10 39 -9 52 16 20 40 68 81 111 96 48 17 59 18 109
4z"/>
<path d="M2580 3750 c0 -18 7 -20 70 -20 63 0 70 2 70 20 0 18 -7 20 -70 20
-63 0 -70 -2 -70 -20z"/>
<path d="M2790 3750 c0 -18 7 -20 70 -20 63 0 70 2 70 20 0 18 -7 20 -70 20
-63 0 -70 -2 -70 -20z"/>
<path d="M4060 3750 c0 -18 7 -20 65 -20 58 0 65 2 65 20 0 18 -7 20 -65 20
-58 0 -65 -2 -65 -20z"/>
<path d="M2790 3570 c0 -18 7 -20 70 -20 63 0 70 2 70 20 0 18 -7 20 -70 20
-63 0 -70 -2 -70 -20z"/>
<path d="M3000 3570 c0 -18 7 -20 70 -20 63 0 70 2 70 20 0 18 -7 20 -70 20
-63 0 -70 -2 -70 -20z"/>
<path d="M3212 3573 c3 -15 16 -19 71 -21 62 -3 67 -1 67 18 0 18 -6 20 -71
20 -62 0 -70 -2 -67 -17z"/>
<path d="M3430 3570 c0 -18 7 -20 65 -20 58 0 65 2 65 20 0 18 -7 20 -65 20
-58 0 -65 -2 -65 -20z"/>
<path d="M3850 3570 c0 -18 7 -20 65 -20 58 0 65 2 65 20 0 18 -7 20 -65 20
-58 0 -65 -2 -65 -20z"/>
<path d="M4060 3570 c0 -18 7 -20 65 -20 58 0 65 2 65 20 0 18 -7 20 -65 20
-58 0 -65 -2 -65 -20z"/>
<path d="M4270 3570 c0 -19 5 -21 67 -18 55 2 68 6 71 21 3 15 -5 17 -67 17
-65 0 -71 -2 -71 -20z"/>
<path d="M2580 3400 c0 -18 7 -20 70 -20 63 0 70 2 70 20 0 18 -7 20 -70 20
-63 0 -70 -2 -70 -20z"/>
<path d="M2790 3400 c0 -18 7 -20 70 -20 63 0 70 2 70 20 0 18 -7 20 -70 20
-63 0 -70 -2 -70 -20z"/>
<path d="M3000 3400 c0 -18 7 -20 70 -20 63 0 70 2 70 20 0 18 -7 20 -70 20
-63 0 -70 -2 -70 -20z"/>
<path d="M3217 3413 c-4 -3 -7 -12 -7 -20 0 -10 18 -13 70 -13 63 0 70 2 70
20 0 18 -7 20 -63 20 -35 0 -67 -3 -70 -7z"/>
<path d="M3430 3400 c0 -18 7 -20 65 -20 58 0 65 2 65 20 0 18 -7 20 -65 20
-58 0 -65 -2 -65 -20z"/>
<path d="M3640 3400 c0 -18 7 -20 65 -20 58 0 65 2 65 20 0 18 -7 20 -65 20
-58 0 -65 -2 -65 -20z"/>
<path d="M3850 3400 c0 -18 7 -20 65 -20 58 0 65 2 65 20 0 18 -7 20 -65 20
-58 0 -65 -2 -65 -20z"/>
<path d="M4060 3400 c0 -18 7 -20 65 -20 58 0 65 2 65 20 0 18 -7 20 -65 20
-58 0 -65 -2 -65 -20z"/>
<path d="M4270 3400 c0 -18 7 -20 70 -20 63 0 70 2 70 20 0 18 -7 20 -70 20
-63 0 -70 -2 -70 -20z"/>
<path d="M2790 3220 c0 -18 7 -20 70 -20 63 0 70 2 70 20 0 18 -7 20 -70 20
-63 0 -70 -2 -70 -20z"/>
<path d="M3212 3223 c3 -15 16 -19 71 -21 62 -3 67 -1 67 18 0 18 -6 20 -71
20 -62 0 -70 -2 -67 -17z"/>
<path d="M3430 3220 c0 -18 7 -20 65 -20 58 0 65 2 65 20 0 18 -7 20 -65 20
-58 0 -65 -2 -65 -20z"/>
<path d="M3640 3220 c0 -18 7 -20 65 -20 58 0 65 2 65 20 0 18 -7 20 -65 20
-58 0 -65 -2 -65 -20z"/>
<path d="M2580 3050 c0 -18 7 -20 70 -20 63 0 70 2 70 20 0 18 -7 20 -70 20
-63 0 -70 -2 -70 -20z"/>
<path d="M2790 3050 c0 -18 7 -20 70 -20 63 0 70 2 70 20 0 18 -7 20 -70 20
-63 0 -70 -2 -70 -20z"/>
<path d="M3000 3050 c0 -18 7 -20 70 -20 63 0 70 2 70 20 0 18 -7 20 -70 20
-63 0 -70 -2 -70 -20z"/>
<path d="M3217 3063 c-4 -3 -7 -12 -7 -20 0 -10 18 -13 70 -13 63 0 70 2 70
20 0 18 -7 20 -63 20 -35 0 -67 -3 -70 -7z"/>
<path d="M3430 3050 c0 -18 7 -20 65 -20 58 0 65 2 65 20 0 18 -7 20 -65 20
-58 0 -65 -2 -65 -20z"/>
<path d="M3640 3050 c0 -18 7 -20 65 -20 58 0 65 2 65 20 0 18 -7 20 -65 20
-58 0 -65 -2 -65 -20z"/>
<path d="M3850 3050 c0 -18 7 -20 65 -20 58 0 65 2 65 20 0 18 -7 20 -65 20
-58 0 -65 -2 -65 -20z"/>
<path d="M4060 3050 c0 -18 7 -20 65 -20 58 0 65 2 65 20 0 18 -7 20 -65 20
-58 0 -65 -2 -65 -20z"/>
<path d="M4270 3050 c0 -18 7 -20 70 -20 63 0 70 2 70 20 0 18 -7 20 -70 20
-63 0 -70 -2 -70 -20z"/>
<path d="M2580 2870 c0 -19 5 -21 67 -18 55 2 68 6 71 21 3 15 -5 17 -67 17
-65 0 -71 -2 -71 -20z"/>
<path d="M2790 2870 c0 -18 7 -20 70 -20 63 0 70 2 70 20 0 18 -7 20 -70 20
-63 0 -70 -2 -70 -20z"/>
<path d="M3430 2870 c0 -18 7 -20 65 -20 58 0 65 2 65 20 0 18 -7 20 -65 20
-58 0 -65 -2 -65 -20z"/>
<path d="M3640 2870 c0 -18 7 -20 65 -20 58 0 65 2 65 20 0 18 -7 20 -65 20
-58 0 -65 -2 -65 -20z"/>
<path d="M4270 2870 c0 -19 5 -21 67 -18 55 2 68 6 71 21 3 15 -5 17 -67 17
-65 0 -71 -2 -71 -20z"/>
<path d="M2790 2700 c0 -18 7 -20 70 -20 63 0 70 2 70 20 0 18 -7 20 -70 20
-63 0 -70 -2 -70 -20z"/>
<path d="M3000 2700 c0 -18 7 -20 70 -20 63 0 70 2 70 20 0 18 -7 20 -70 20
-63 0 -70 -2 -70 -20z"/>
<path d="M3217 2713 c-4 -3 -7 -12 -7 -20 0 -10 18 -13 70 -13 63 0 70 2 70
20 0 18 -7 20 -63 20 -35 0 -67 -3 -70 -7z"/>
<path d="M3430 2700 c0 -18 7 -20 65 -20 58 0 65 2 65 20 0 18 -7 20 -65 20
-58 0 -65 -2 -65 -20z"/>
<path d="M3640 2700 c0 -18 7 -20 65 -20 58 0 65 2 65 20 0 18 -7 20 -65 20
-58 0 -65 -2 -65 -20z"/>
<path d="M3850 2700 c0 -18 7 -20 65 -20 58 0 65 2 65 20 0 18 -7 20 -65 20
-58 0 -65 -2 -65 -20z"/>
<path d="M4060 2700 c0 -18 7 -20 65 -20 58 0 65 2 65 20 0 18 -7 20 -65 20
-58 0 -65 -2 -65 -20z"/>
<path d="M4270 2700 c0 -18 7 -20 70 -20 63 0 70 2 70 20 0 18 -7 20 -70 20
-63 0 -70 -2 -70 -20z"/>
<path d="M2580 2520 c0 -19 5 -21 67 -18 55 2 68 6 71 21 3 15 -5 17 -67 17
-65 0 -71 -2 -71 -20z"/>
<path d="M2790 2520 c0 -18 7 -20 70 -20 63 0 70 2 70 20 0 18 -7 20 -70 20
-63 0 -70 -2 -70 -20z"/>
<path d="M3000 2520 c0 -18 7 -20 70 -20 63 0 70 2 70 20 0 18 -7 20 -70 20
-63 0 -70 -2 -70 -20z"/>
<path d="M3212 2523 c3 -15 16 -19 71 -21 62 -3 67 -1 67 18 0 18 -6 20 -71
20 -62 0 -70 -2 -67 -17z"/>
<path d="M3850 2520 c0 -18 7 -20 65 -20 58 0 65 2 65 20 0 18 -7 20 -65 20
-58 0 -65 -2 -65 -20z"/>
<path d="M3217 2363 c-4 -3 -7 -12 -7 -20 0 -10 18 -13 70 -13 63 0 70 2 70
20 0 18 -7 20 -63 20 -35 0 -67 -3 -70 -7z"/>
<path d="M3430 2350 c0 -18 7 -20 65 -20 58 0 65 2 65 20 0 18 -7 20 -65 20
-58 0 -65 -2 -65 -20z"/>
<path d="M3640 2350 c0 -18 7 -20 65 -20 58 0 65 2 65 20 0 18 -7 20 -65 20
-58 0 -65 -2 -65 -20z"/>
<path d="M3850 2350 c0 -18 7 -20 65 -20 58 0 65 2 65 20 0 18 -7 20 -65 20
-58 0 -65 -2 -65 -20z"/>
<path d="M4060 2350 c0 -18 7 -20 65 -20 58 0 65 2 65 20 0 18 -7 20 -65 20
-58 0 -65 -2 -65 -20z"/>
<path d="M4270 2350 c0 -18 7 -20 70 -20 63 0 70 2 70 20 0 18 -7 20 -70 20
-63 0 -70 -2 -70 -20z"/>
<path d="M2580 2170 c0 -19 5 -21 67 -18 55 2 68 6 71 21 3 15 -5 17 -67 17
-65 0 -71 -2 -71 -20z"/>
<path d="M2790 2170 c0 -18 7 -20 70 -20 63 0 70 2 70 20 0 18 -7 20 -70 20
-63 0 -70 -2 -70 -20z"/>
<path d="M3000 2170 c0 -18 7 -20 70 -20 63 0 70 2 70 20 0 18 -7 20 -70 20
-63 0 -70 -2 -70 -20z"/>
<path d="M3212 2173 c3 -15 16 -19 71 -21 62 -3 67 -1 67 18 0 18 -6 20 -71
20 -62 0 -70 -2 -67 -17z"/>
<path d="M3430 2170 c0 -18 7 -20 65 -20 58 0 65 2 65 20 0 18 -7 20 -65 20
-58 0 -65 -2 -65 -20z"/>
<path d="M3640 2170 c0 -18 7 -20 65 -20 58 0 65 2 65 20 0 18 -7 20 -65 20
-58 0 -65 -2 -65 -20z"/>
<path d="M3850 2170 c0 -18 7 -20 65 -20 58 0 65 2 65 20 0 18 -7 20 -65 20
-58 0 -65 -2 -65 -20z"/>
<path d="M4060 2170 c0 -18 7 -20 65 -20 58 0 65 2 65 20 0 18 -7 20 -65 20
-58 0 -65 -2 -65 -20z"/>
<path d="M2580 2000 c0 -18 7 -20 70 -20 63 0 70 2 70 20 0 18 -7 20 -70 20
-63 0 -70 -2 -70 -20z"/>
<path d="M2790 2000 c0 -18 7 -20 70 -20 63 0 70 2 70 20 0 18 -7 20 -70 20
-63 0 -70 -2 -70 -20z"/>
<path d="M3000 2000 c0 -18 7 -20 70 -20 63 0 70 2 70 20 0 18 -7 20 -70 20
-63 0 -70 -2 -70 -20z"/>
<path d="M3430 2000 c0 -18 7 -20 65 -20 58 0 65 2 65 20 0 18 -7 20 -65 20
-58 0 -65 -2 -65 -20z"/>
<path d="M3640 2000 c0 -18 7 -20 65 -20 58 0 65 2 65 20 0 18 -7 20 -65 20
-58 0 -65 -2 -65 -20z"/>
<path d="M3850 2000 c0 -18 7 -20 65 -20 58 0 65 2 65 20 0 18 -7 20 -65 20
-58 0 -65 -2 -65 -20z"/>
<path d="M4060 2000 c0 -18 7 -20 65 -20 58 0 65 2 65 20 0 18 -7 20 -65 20
-58 0 -65 -2 -65 -20z"/>
<path d="M4270 2000 c0 -18 7 -20 70 -20 63 0 70 2 70 20 0 18 -7 20 -70 20
-63 0 -70 -2 -70 -20z"/>
<path d="M2790 1820 c0 -18 7 -20 70 -20 63 0 70 2 70 20 0 18 -7 20 -70 20
-63 0 -70 -2 -70 -20z"/>
<path d="M3000 1820 c0 -18 7 -20 70 -20 63 0 70 2 70 20 0 18 -7 20 -70 20
-63 0 -70 -2 -70 -20z"/>
<path d="M3212 1823 c3 -15 16 -19 71 -21 62 -3 67 -1 67 18 0 18 -6 20 -71
20 -62 0 -70 -2 -67 -17z"/>
<path d="M3430 1820 c0 -18 7 -20 65 -20 58 0 65 2 65 20 0 18 -7 20 -65 20
-58 0 -65 -2 -65 -20z"/>
<path d="M3850 1820 c0 -18 7 -20 65 -20 58 0 65 2 65 20 0 18 -7 20 -65 20
-58 0 -65 -2 -65 -20z"/>
<path d="M4270 1820 c0 -19 5 -21 67 -18 55 2 68 6 71 21 3 15 -5 17 -67 17
-65 0 -71 -2 -71 -20z"/>
<path d="M2580 1650 c0 -18 7 -20 70 -20 63 0 70 2 70 20 0 18 -7 20 -70 20
-63 0 -70 -2 -70 -20z"/>
<path d="M2790 1650 c0 -18 7 -20 70 -20 63 0 70 2 70 20 0 18 -7 20 -70 20
-63 0 -70 -2 -70 -20z"/>
<path d="M3000 1650 c0 -18 7 -20 70 -20 63 0 70 2 70 20 0 18 -7 20 -70 20
-63 0 -70 -2 -70 -20z"/>
<path d="M3217 1663 c-4 -3 -7 -12 -7 -20 0 -10 18 -13 70 -13 63 0 70 2 70
20 0 18 -7 20 -63 20 -35 0 -67 -3 -70 -7z"/>
<path d="M3430 1650 c0 -18 7 -20 65 -20 58 0 65 2 65 20 0 18 -7 20 -65 20
-58 0 -65 -2 -65 -20z"/>
<path d="M3640 1650 c0 -18 7 -20 65 -20 58 0 65 2 65 20 0 18 -7 20 -65 20
-58 0 -65 -2 -65 -20z"/>
<path d="M3850 1650 c0 -18 7 -20 65 -20 58 0 65 2 65 20 0 18 -7 20 -65 20
-58 0 -65 -2 -65 -20z"/>
<path d="M4060 1650 c0 -18 7 -20 65 -20 58 0 65 2 65 20 0 18 -7 20 -65 20
-58 0 -65 -2 -65 -20z"/>
<path d="M4270 1650 c0 -18 7 -20 70 -20 63 0 70 2 70 20 0 18 -7 20 -70 20
-63 0 -70 -2 -70 -20z"/>
<path d="M3000 1470 c0 -18 7 -20 70 -20 63 0 70 2 70 20 0 18 -7 20 -70 20
-63 0 -70 -2 -70 -20z"/>
<path d="M3212 1473 c3 -15 16 -19 71 -21 62 -3 67 -1 67 18 0 18 -6 20 -71
20 -62 0 -70 -2 -67 -17z"/>
<path d="M3430 1470 c0 -18 7 -20 65 -20 58 0 65 2 65 20 0 18 -7 20 -65 20
-58 0 -65 -2 -65 -20z"/>
<path d="M3640 1470 c0 -18 7 -20 65 -20 58 0 65 2 65 20 0 18 -7 20 -65 20
-58 0 -65 -2 -65 -20z"/>
<path d="M3850 1470 c0 -18 7 -20 65 -20 58 0 65 2 65 20 0 18 -7 20 -65 20
-58 0 -65 -2 -65 -20z"/>
<path d="M3230 6299 c-114 -10 -297 -35 -372 -51 -44 -9 -47 -11 -43 -36 3
-15 16 -112 30 -217 108 -804 272 -1451 431 -1703 161 -256 326 -227 479 83
121 243 234 669 329 1240 45 269 90 600 83 617 -5 14 -121 36 -302 58 -117 15
-513 20 -635 9z m649 -55 c69 -8 154 -19 188 -25 60 -10 62 -12 58 -37 -3 -15
-16 -115 -31 -222 -14 -107 -29 -198 -33 -202 -3 -4 -24 -3 -46 2 -300 72
-665 77 -971 15 -65 -13 -119 -23 -121 -22 -4 5 -65 449 -61 452 8 8 296 46
411 55 153 11 442 4 606 -16z m-70 -489 c57 -8 135 -23 173 -31 81 -19 78 -4
43 -199 -119 -682 -267 -1146 -413 -1295 -61 -63 -91 -76 -148 -65 -113 21
-249 284 -358 690 -62 233 -185 839 -173 852 12 12 248 51 402 67 79 8 372 -3
474 -19z"/>
</g>
</svg>
