<svg width="26" height="30" viewBox="0 0 26 30" fill="none" xmlns="http://www.w3.org/2000/svg">
<path d="M16.7134 26.25C16.7134 27.2461 16.3245 28.2012 15.6281 28.9043C14.9317 29.6074 13.9857 30 12.9991 30C12.0125 30 11.0665 29.6074 10.3701 28.9043C9.67363 28.2012 9.28479 27.2461 9.28479 26.25H12.9991H16.7134Z" fill="white"/>
<path opacity="0.4" d="M12.999 0C11.9718 0 11.1419 0.837891 11.1419 1.875V3C6.90526 3.86719 3.7133 7.65234 3.7133 12.1875V13.2891C3.7133 16.043 2.70928 18.7031 0.898565 20.7656L0.4691 21.252C-0.0183995 21.8027 -0.134471 22.5938 0.161511 23.2676C0.457493 23.9414 1.1249 24.375 1.85615 24.375H24.1419C24.8731 24.375 25.5347 23.9414 25.8365 23.2676C26.1383 22.5938 26.0164 21.8027 25.5289 21.252L25.0995 20.7656C23.2887 18.7031 22.2847 16.0488 22.2847 13.2891V12.1875C22.2847 7.65234 19.0928 3.86719 14.8562 3V1.875C14.8562 0.837891 14.0262 0 12.999 0Z" fill="white"/>
</svg>
