<svg width="26" height="30" viewBox="0 0 26 30" fill="none" xmlns="http://www.w3.org/2000/svg">
<path d="M16.7137 26.25C16.7137 27.2461 16.3249 28.2012 15.6285 28.9043C14.932 29.6074 13.986 30 12.9994 30C12.0128 30 11.0669 29.6074 10.3704 28.9043C9.674 28.2012 9.28516 27.2461 9.28516 26.25H12.9994H16.7137Z" fill="#183867"/>
<path opacity="0.4" d="M12.9994 0C11.9721 0 11.1422 0.837891 11.1422 1.875V3C6.90563 3.86719 3.71366 7.65234 3.71366 12.1875V13.2891C3.71366 16.043 2.70965 18.7031 0.898931 20.7656L0.469467 21.252C-0.0180333 21.8027 -0.134105 22.5938 0.161877 23.2676C0.457859 23.9414 1.12527 24.375 1.85652 24.375H24.1422C24.8735 24.375 25.5351 23.9414 25.8369 23.2676C26.1387 22.5938 26.0168 21.8027 25.5293 21.252L25.0998 20.7656C23.2891 18.7031 22.2851 16.0488 22.2851 13.2891V12.1875C22.2851 7.65234 19.0931 3.86719 14.8565 3V1.875C14.8565 0.837891 14.0266 0 12.9994 0Z" fill="#183867"/>
</svg>
